<?xml version="1.0"?>
<svg version="1.1" xmlns="http://www.w3.org/2000/svg" width="400px" height="200px" style="border: dashed 2px #aaa"><path fill="#d6991e" d="M74.871,129.484c0,1.26-0.315,1.764-1.512,2.394c-3.465,1.764-9.324,2.898-14.112,2.898c-13.104,0-20.538-9.072-20.538-22.428c0-13.167,8.505-22.743,21.357-22.743c4.032,0,7.749,0.693,11.529,2.394c0.693,0.315,0.882,0.693,0.882,1.134c0,0.252-0.126,0.504-0.189,0.756l-1.449,3.78c-0.252,0.63-0.504,0.882-0.945,0.882c-0.252,0-0.567-0.126-0.882-0.252c-2.079-0.882-5.67-1.827-8.568-1.827c-3.402,0-6.678,1.26-8.883,3.591c-2.646,2.772-4.158,6.867-4.158,12.033c0,9.765,4.599,15.876,12.159,15.876c2.583,0,5.418-0.378,7.119-1.071l0-12.033l-5.607,0c-0.882,0-1.386-0.315-1.386-1.386l0-3.843c0-1.008,0.504-1.26,1.449-1.26l12.222,0c1.071,0,1.512,0.315,1.512,1.449l0,19.656z M116.1675,132.823c0,0.756-0.504,1.197-1.26,1.197l-3.024,0c-3.276,0-4.725-1.575-5.166-3.717l-0.126,0c-1.575,2.331-5.67,4.473-9.135,4.473c-8.883,0-12.915-7.308-12.915-15.498c0-10.899,6.552-16.632,13.608-16.632c3.339,0,6.489,1.512,8.064,3.654l0.126-1.701c0.063-0.693,0.567-1.134,1.323-1.134l4.41,0c0.819,0,1.323,0.441,1.323,1.386l0,21.861c0,0.882,0.126,1.512,0.378,1.827c0.189,0.189,0.441,0.252,0.756,0.252l0.504,0c0.756,0,1.134,0.252,1.134,1.071l0,2.961z M105.7725,124.255l0-12.159c-1.26-1.827-3.843-3.213-6.237-3.213c-3.843,0-7.119,3.276-7.119,9.891c0,5.292,2.016,9.765,6.678,9.765c3.087,0,5.733-2.331,6.678-4.284z M171.009,132.445c0,1.134-0.441,1.575-1.512,1.575l-4.41,0c-1.134,0-1.638-0.441-1.638-1.575l0-17.262c0-3.402-0.882-5.985-4.725-5.985c-2.394,0-5.166,1.26-7.119,2.835c0.126,0.567,0.252,9.009,0.252,9.891l0,10.521c0,1.134-0.441,1.575-1.512,1.575l-4.158,0c-1.134,0-1.638-0.441-1.638-1.575l0-17.262c0-3.339-0.693-5.985-4.536-5.985c-2.457,0-4.977,1.386-6.993,3.15l0,20.097c0,1.134-0.504,1.575-1.575,1.575l-4.41,0c-1.134,0-1.638-0.441-1.638-1.575l0-27.531c0-1.008,0.567-1.449,1.512-1.449l4.095,0c0.945,0,1.512,0.315,1.575,1.197l0.063,1.575c2.583-2.268,5.985-3.591,9.261-3.591c3.843,0,6.552,1.701,8.001,4.095c2.835-2.709,6.93-4.095,10.773-4.095c4.599,0,7.497,2.268,8.82,4.725c1.197,2.331,1.512,5.103,1.512,9.135l0,15.939z M191.2005,95.464c0,2.457-2.142,3.969-4.221,3.969s-4.284-1.386-4.284-3.906s2.079-4.032,4.284-4.032c2.142,0,4.221,1.449,4.221,3.969z M190.8225,132.445c0,1.134-0.504,1.575-1.575,1.575l-4.41,0c-1.134,0-1.638-0.441-1.638-1.575l0-27.531c0-1.071,0.63-1.449,1.638-1.449l4.41,0c1.008,0,1.575,0.315,1.575,1.449l0,27.531z M223.362,90.676c0,0.315-0.063,0.693-0.126,1.071l-0.441,2.646c-0.126,0.567-0.315,0.945-0.819,0.945c-0.252,0-0.441-0.063-0.693-0.126c-1.26-0.441-2.772-0.819-4.284-0.819c-3.78,0-4.599,2.52-4.599,6.174l0,2.898l6.993,0c0.756,0,1.26,0.252,1.26,1.071l0,2.961c0,0.819-0.504,1.197-1.26,1.197l-6.993,0l0,23.562c0,1.134-0.378,1.764-1.575,1.764l-4.536,0c-1.071,0-1.512-0.567-1.512-1.638l0-23.688l-3.402,0c-1.134,0-1.323-0.252-1.323-1.575l0-2.394c0-0.756,0.378-1.26,1.197-1.26l3.528,0l0-1.701c0-2.079,0.189-3.717,0.441-5.103c1.008-5.292,4.347-8.505,10.647-8.505c2.079,0,4.851,0.504,6.678,1.323c0.63,0.252,0.819,0.63,0.819,1.197z M257.1615,104.347c0,0.189-0.063,0.378-0.126,0.63l-12.411,32.634c-2.835,7.497-6.363,10.143-13.923,10.143c-1.197,0-2.268-0.063-3.339-0.315c-0.693-0.126-0.945-0.504-0.945-1.071c0-0.189,0.063-0.315,0.063-0.567l0.441-3.276c0.126-0.819,0.441-1.134,1.134-1.134l0.378,0c0.756,0.063,1.512,0.189,2.142,0.189c3.906,0,5.544-1.386,6.804-4.347l1.197-2.835l-11.466-29.547c-0.063-0.189-0.126-0.315-0.126-0.504c0-0.504,0.378-0.882,0.945-0.882l6.048,0c0.882,0,1.323,0.441,1.575,1.071l6.993,20.853l6.615-20.475c0.315-1.008,0.819-1.449,1.89-1.449l5.103,0c0.63,0,1.008,0.378,1.008,0.882z"/><path fill="#" d=""/></svg>
